<?xml version="1.0" standalone="no"?>
<!DOCTYPE svg PUBLIC "-//W3C//DTD SVG 20010904//EN"
 "http://www.w3.org/TR/2001/REC-SVG-20010904/DTD/svg10.dtd">
<svg version="1.0" xmlns="http://www.w3.org/2000/svg"
 width="575.000000pt" height="83.000000pt" viewBox="0 0 575.000000 83.000000"
 preserveAspectRatio="xMidYMid meet">

<g transform="translate(0.000000,83.000000) scale(0.100000,-0.100000)"
fill="#000000" stroke="none">
<path d="M1350 598 l0 -131 -21 19 c-28 26 -114 26 -153 1 -38 -25 -75 -111
-83 -189 -7 -79 17 -170 54 -210 49 -51 140 -62 186 -21 14 13 21 15 24 6 3
-9 25 -13 64 -13 l59 0 0 335 0 335 -65 0 -65 0 0 -132z m-3 -269 c22 -43 16
-88 -17 -120 -25 -26 -33 -28 -51 -19 -11 7 -28 28 -36 48 -28 68 23 160 72
128 11 -7 26 -24 32 -37z"/>
<path d="M5110 496 l0 -224 58 -4 c31 -1 74 -2 95 0 l37 3 0 225 0 224 -95 0
-95 0 0 -224z"/>
<path d="M4249 696 c-86 -30 -146 -105 -175 -216 -30 -120 -1 -263 72 -349 50
-58 99 -80 177 -82 157 -4 266 126 267 317 1 241 -159 395 -341 330z m146
-176 c25 -28 44 -89 45 -146 0 -64 -34 -131 -79 -158 -31 -18 -35 -18 -68 -2
-69 33 -100 178 -56 263 28 54 76 85 112 72 16 -6 37 -19 46 -29z"/>
<path d="M290 615 l0 -75 50 0 50 0 0 -240 0 -240 75 0 75 0 2 238 3 237 53 3
52 3 0 75 0 74 -180 0 -180 0 0 -75z"/>
<path d="M2330 375 l0 -315 75 0 75 0 0 125 0 125 75 0 75 0 0 70 0 70 -75 0
-75 0 0 50 0 50 80 0 80 0 0 70 0 70 -155 0 -155 0 0 -315z"/>
<path d="M2661 447 c4 -242 4 -242 32 -300 41 -83 78 -100 208 -95 115 4 140
17 179 94 24 48 25 56 28 297 l4 247 -76 0 -76 0 0 -199 c0 -237 -3 -257 -43
-281 -27 -17 -33 -17 -58 -5 -39 21 -49 81 -49 300 l0 185 -76 0 -76 0 3 -243z"/>
<path d="M3220 615 l0 -75 50 0 50 0 0 -240 0 -240 75 0 75 0 2 238 3 237 53
3 52 3 0 75 0 74 -180 0 -180 0 0 -75z"/>
<path d="M3600 376 l0 -316 108 -1 c141 -2 149 -1 206 24 39 16 52 29 67 61
36 80 14 217 -41 246 l-21 11 25 30 c43 51 48 158 9 201 -39 43 -72 52 -215
56 l-138 4 0 -316z m217 162 c33 -27 1 -98 -44 -98 -22 0 -23 4 -23 61 l0 61
27 -7 c16 -4 34 -11 40 -17z m-2 -232 c30 -13 35 -20 35 -49 0 -41 -15 -56
-64 -64 l-36 -6 0 67 c0 74 4 77 65 52z"/>
<path d="M4690 375 l0 -315 155 0 155 0 0 75 0 74 -77 3 -78 3 -3 238 -2 237
-75 0 -75 0 0 -315z"/>
<path d="M764 501 c-81 -37 -119 -118 -112 -238 8 -128 62 -205 154 -219 133
-20 224 76 224 236 0 118 -51 207 -131 230 -50 15 -89 12 -135 -9z m113 -157
c23 -36 20 -90 -7 -119 -28 -30 -55 -19 -75 29 -33 78 38 156 82 90z"/>
<path d="M1674 501 c-81 -37 -119 -118 -112 -238 8 -128 62 -205 154 -219 133
-20 224 76 224 236 0 118 -51 207 -131 230 -50 15 -89 12 -135 -9z m109 -148
c28 -32 26 -99 -3 -131 -27 -28 -55 -15 -76 33 -29 71 33 148 79 98z"/>
<path d="M5164 221 c-32 -14 -64 -60 -64 -93 0 -19 10 -40 29 -59 42 -42 110
-42 152 0 38 38 39 80 2 121 -30 33 -82 46 -119 31z"/>
</g>
</svg>
